<svg width="18" height="18" fill="none" xmlns="http://www.w3.org/2000/svg"><path d="M7.775 13.025l6.169-6.169-1.225-1.225-4.944 4.944-2.494-2.494-1.225 1.225 3.719 3.719zM9 17.75c-1.21 0-2.348-.23-3.412-.69a8.85 8.85 0 01-2.779-1.87 8.83 8.83 0 01-1.87-2.777A8.536 8.536 0 01.25 9c0-1.21.23-2.348.69-3.412a8.85 8.85 0 011.87-2.779A8.83 8.83 0 015.587.94 8.536 8.536 0 019 .25c1.21 0 2.348.23 3.412.69a8.85 8.85 0 012.779 1.87 8.843 8.843 0 011.87 2.778A8.49 8.49 0 0117.75 9c0 1.21-.23 2.348-.69 3.412a8.85 8.85 0 01-1.87 2.779 8.843 8.843 0 01-2.777 1.87A8.506 8.506 0 019 17.75zM9 16c1.954 0 3.61-.678 4.966-2.034C15.322 12.609 16 10.954 16 9c0-1.954-.678-3.61-2.034-4.966C12.609 2.678 10.954 2 9 2c-1.954 0-3.61.678-4.966 2.034C2.678 5.391 2 7.046 2 9c0 1.954.678 3.61 2.034 4.966C5.391 15.322 7.046 16 9 16z" fill="#F1F5FF"/></svg>