<svg width="24" height="25" fill="none" xmlns="http://www.w3.org/2000/svg"><g clip-path="url(#clip0_68_22)"><path d="M16.27.75H7.23A7.23 7.23 0 000 7.98v9.04a7.23 7.23 0 007.23 7.23h9.04a7.23 7.23 0 007.23-7.23V7.98A7.23 7.23 0 0016.27.75z" fill="url(#paint0_linear_68_22)"/><mask id="a" style="mask-type:luminance" maskUnits="userSpaceOnUse" x="5" y="6" width="14" height="13"><path d="M18.077 6.173H5.423v12.654h12.654V6.173z" fill="#fff"/></mask><g mask="url(#a)"><path d="M7.058 12.13l1.898 1.74-.528 2.426c-.052.317.053.633.317.791a.598.598 0 00.422.158c.105 0 .21 0 .316-.053 0 0 .053 0 .053-.052l2.161-1.213 2.162 1.213s.053 0 .053.052c.263.106.58.106.79-.052.264-.158.37-.475.317-.791l-.527-2.425c.21-.159.527-.475.843-.791l1.002-.897.053-.052a.736.736 0 00.158-.791.816.816 0 00-.633-.527h-.052l-2.479-.264-1.001-2.267s0-.053-.053-.053c-.053-.369-.316-.527-.58-.527-.264 0-.527.158-.685.422 0 0 0 .052-.053.052l-1.002 2.268-2.478.263h-.053a.908.908 0 00-.632.527c-.053.317 0 .633.21.844z" fill="#F0F0F0"/></g></g><defs><linearGradient id="paint0_linear_68_22" x1="-5.25" y1="-5.25" x2="23.5" y2="27.25" gradientUnits="userSpaceOnUse"><stop stop-color="#0043C6"/><stop offset="1" stop-color="#C0F"/></linearGradient><clipPath id="clip0_68_22"><path fill="#fff" transform="translate(0 .75)" d="M0 0h23.5v23.5H0z"/></clipPath></defs></svg>