<svg width="28" height="28" fill="none" xmlns="http://www.w3.org/2000/svg"><g clip-path="url(#clip0_5_18)"><path d="M19.385 0H8.615A8.615 8.615 0 000 8.615v10.77A8.615 8.615 0 008.615 28h10.77A8.615 8.615 0 0028 19.385V8.615A8.615 8.615 0 0019.385 0z" fill="#0043C6"/><mask id="a" style="mask-type:luminance" maskUnits="userSpaceOnUse" x="6" y="6" width="16" height="16"><path d="M21.538 6.461H6.462v15.077h15.076V6.461z" fill="#fff"/></mask><g mask="url(#a)"><path d="M8.409 13.56l2.261 2.073-.628 2.89c-.063.377.063.754.377.942a.713.713 0 00.503.189c.125 0 .251 0 .377-.063 0 0 .063 0 .063-.063l2.575-1.445 2.576 1.445s.063 0 .063.063c.314.125.69.125.942-.063.314-.188.44-.565.377-.942l-.628-2.89c.25-.188.628-.565 1.005-.942l1.193-1.068.063-.063a.877.877 0 00.189-.942c-.126-.314-.377-.566-.754-.629H18.9l-2.953-.314-1.193-2.701s0-.063-.063-.063c-.063-.44-.377-.628-.691-.628-.314 0-.628.188-.817.502 0 0 0 .063-.063.063l-1.193 2.702-2.953.314h-.062a1.082 1.082 0 00-.754.628c-.063.377 0 .754.25 1.005z" fill="#F0F0F0"/></g></g><defs><clipPath id="clip0_5_18"><path fill="#fff" d="M0 0h28v28H0z"/></clipPath></defs></svg>