<svg width="18" height="19" fill="none" xmlns="http://www.w3.org/2000/svg"><path d="M5.85 13.875L9 10.725l3.15 3.15 1.225-1.225-3.15-3.15 3.15-3.15-1.225-1.225L9 8.275l-3.15-3.15L4.625 6.35l3.15 3.15-3.15 3.15 1.225 1.225zM9 18.25c-1.21 0-2.348-.23-3.412-.69a8.85 8.85 0 01-2.779-1.87 8.83 8.83 0 01-1.87-2.777A8.536 8.536 0 01.25 9.5c0-1.21.23-2.348.69-3.412a8.85 8.85 0 011.87-2.779 8.83 8.83 0 012.778-1.87A8.536 8.536 0 019 .75c1.21 0 2.348.23 3.412.69a8.85 8.85 0 012.779 1.87 8.843 8.843 0 011.87 2.778A8.49 8.49 0 0117.75 9.5c0 1.21-.23 2.348-.69 3.412a8.85 8.85 0 01-1.87 2.779 8.843 8.843 0 01-2.777 1.87A8.506 8.506 0 019 18.25zm0-1.75c1.954 0 3.61-.678 4.966-2.034C15.322 13.109 16 11.454 16 9.5c0-1.954-.678-3.61-2.034-4.966C12.609 3.178 10.954 2.5 9 2.5c-1.954 0-3.61.678-4.966 2.034C2.678 5.891 2 7.546 2 9.5c0 1.954.678 3.61 2.034 4.966C5.391 15.822 7.046 16.5 9 16.5z" fill="#F1F5FF"/></svg>